<svg xmlns="http://www.w3.org/2000/svg" width="20" height="20" fill="none" viewBox="0 0 20 20"><path fill="currentColor" fill-rule="evenodd" d="M6.94 3.951c-.458-1.378-2.413-1.363-2.852.022l-4.053 12.8a.75.75 0 0 0 1.43.452l1.1-3.476h6.06l1.164 3.487a.75.75 0 1 0 1.423-.474zm1.186 8.298L5.518 4.426 3.04 12.249zm6.198-5.537a4.74 4.74 0 0 1 3.037-.081A3.74 3.74 0 0 1 20 10.207v6.792a.75.75 0 0 1-1.5 0v-.745a8 8 0 0 1-2.847 1.355 3 3 0 0 1-3.15-1.143c-1.655-2.275-.03-5.467 2.784-5.467H18.5v-.792c0-.984-.641-1.853-1.581-2.143a3.24 3.24 0 0 0-2.077.056l-.242.089a2.22 2.22 0 0 0-1.34 1.382l-.048.145a.75.75 0 0 1-1.423-.474l.048-.145a3.72 3.72 0 0 1 2.244-2.315zm4.176 5.787h-3.213c-1.587 0-2.504 1.801-1.57 3.085.357.491.98.717 1.572.57a6.5 6.5 0 0 0 2.47-1.223l.74-.593z" clip-rule="evenodd"/></svg>