<svg xmlns="http://www.w3.org/2000/svg" width="16" height="16" fill="none" viewBox="0 0 16 16"><path fill="var(--color-text-quaternary)" fill-rule="evenodd" d="M8.212.413a2.5 2.5 0 0 1 1.52.72l3.536 3.534A2.5 2.5 0 0 1 14 6.435V11.9l-.013.256a2.5 2.5 0 0 1-2.231 2.231l-.256.013h-7l-.256-.013a2.5 2.5 0 0 1-2.231-2.231L2 11.9v-9A2.5 2.5 0 0 1 4.244.413L4.5.4h3.465zM4.5 1.9a1 1 0 0 0-1 1v9a1 1 0 0 0 1 1h7a1 1 0 0 0 1-1V6.435q0-.017-.003-.035H8.75A1.75 1.75 0 0 1 7 4.65V1.9zm4 2.75c0 .138.112.25.25.25h2.629L8.672 2.193a1 1 0 0 0-.172-.137z" clip-rule="evenodd"/></svg>