<svg width="14" height="14" viewBox="0 0 16 16" role="img" focusable="false" aria-hidden="true" xmlns="http://www.w3.org/2000/svg" class="sx-1fwcy2r sx-13jp3wb sx-13wgh6h sx-31pjnn sx-m5nenu sx-1fwcy2r sx-13jp3wb sx-12exqgt sx-1tad8l3" style="--x---icon-default-color:#9c9da1" fill="#9c9da1"><path fill-rule="evenodd" clip-rule="evenodd" d="M11.3354 1.08228C11.7059 1.27438 11.8561 1.74156 11.6708 2.12576L9.5593 6.50508C9.39923 6.83707 9.64113 7.22224 10.0097 7.22224H14C14 7.22224 14.2275 7.22219 14.25 7.22219C14.6642 7.22219 15 7.57041 15 7.99996C15 8.4295 14.6642 8.77772 14.25 8.77772C10.4465 8.77772 7.32888 11.131 5.67083 14.5699C5.48559 14.9541 5.03507 15.1098 4.66459 14.9177C4.29411 14.7256 4.14394 14.2584 4.32918 13.8742L6.44081 9.49467C6.60085 9.16275 6.35907 8.77764 5.99059 8.77759C4.57706 8.7774 3.16352 8.77781 1.75 8.77781C1.33579 8.77781 1 8.42959 1 8.00004C1 7.5705 1.33579 7.22228 1.75 7.22228C5.55362 7.22228 8.67116 4.86885 10.3292 1.43003C10.5145 1.04588 10.965 0.890196 11.3354 1.08228Z"/></svg>