<svg xmlns="http://www.w3.org/2000/svg" width="0" height="0"><defs><symbol id="Anthropic" viewBox="0 0 16 16"><path d="M10.961 2.998H8.848l3.854 10h2.114zm-6.106 0L1 12.998h2.155l.789-2.1h4.032l.789 2.1h2.155l-3.855-10zM4.64 9.041l1.32-3.515 1.319 3.515z"/></symbol><symbol id="Claude" viewBox="0 0 16 16"><path d="m7.636 15-.35-.266-.196-.434.196-.868.224-1.12.182-.896.168-1.106.098-.364-.014-.028-.07.014-.84 1.148-1.274 1.722-1.008 1.064-.238.098-.42-.21.042-.392.238-.336 1.386-1.778.84-1.106.546-.63-.014-.084h-.028l-3.696 2.408-.658.084-.294-.266.042-.434.14-.14 1.106-.77 2.758-1.54.042-.14-.042-.07h-.14L5.9 8.532 4.332 8.49l-1.358-.056-1.33-.07-.336-.07L1 7.874l.028-.21.28-.182.406.028.882.07 1.33.084.966.056 1.428.154h.224l.028-.098-.07-.056-.056-.056L5.06 6.74l-1.484-.98-.784-.574-.42-.294-.21-.266-.084-.588.378-.42.518.042.126.028.518.406 1.106.854L6.18 6.026l.21.168.098-.056v-.042l-.098-.154-.784-1.428-.84-1.456-.378-.602-.098-.364a1.5 1.5 0 0 1-.056-.42l.434-.588L4.906 1l.588.084.238.21.364.826.574 1.302.91 1.764.266.532.14.476.056.154h.098v-.084l.07-1.008.14-1.218.14-1.568.042-.448.224-.532.434-.28.336.154.28.406-.042.252L9.61 3.1l-.336 1.694-.21 1.148h.126l.14-.154.574-.756.966-1.204.42-.476.504-.532.322-.252h.602l.434.658-.196.686-.616.784-.518.658-.742.994-.448.798.042.056h.098l1.666-.364.91-.154 1.064-.182.49.224.056.224-.196.476-1.148.28-1.344.266-2.002.476-.028.014.028.042.896.084.392.028h.952l1.764.126.462.308.266.364-.042.294-.714.35-.952-.224-2.24-.532-.756-.182h-.112v.056l.644.63 1.162 1.05 1.47 1.358.07.336-.182.28-.196-.028-1.288-.98-.504-.434-1.12-.938h-.07v.098l.252.378 1.372 2.058.07.63-.098.196-.364.126-.378-.07-.812-1.12-.826-1.274-.672-1.134-.07.056-.406 4.228-.182.21z"/></symbol><symbol id="Cursor" viewBox="0 0 16 16"><path fill-rule="evenodd" d="M13.76 4.314 8.285 1.078a.56.56 0 0 0-.568 0L2.239 4.314A.49.49 0 0 0 2 4.738v6.524a.49.49 0 0 0 .24.424l5.476 3.236a.56.56 0 0 0 .568 0l5.477-3.236a.49.49 0 0 0 .24-.424V4.738a.49.49 0 0 0-.24-.424m-.343.685L8.13 14.37c-.036.063-.13.038-.13-.036V8.198a.35.35 0 0 0-.168-.297L2.639 4.833c-.061-.037-.036-.133.035-.133h10.574c.15 0 .244.166.17.3z" clip-rule="evenodd"/></symbol><symbol id="GitHub" viewBox="0 0 16 16"><path d="M6.92 11.055c-1.805-.219-3.076-1.518-3.076-3.2 0-.683.246-1.421.656-1.913-.178-.451-.15-1.408.055-1.805.547-.068 1.285.219 1.722.615.52-.164 1.067-.246 1.737-.246s1.216.082 1.709.233c.423-.383 1.175-.67 1.722-.602.192.37.22 1.326.041 1.791.438.52.67 1.217.67 1.928 0 1.681-1.271 2.953-3.103 3.185.465.301.779.957.779 1.71v1.421c0 .41.342.643.752.479A6.93 6.93 0 0 0 15 8.17c0-3.87-3.145-7.028-7.014-7.028S1 4.3 1 8.17a6.9 6.9 0 0 0 4.525 6.494c.37.137.725-.109.725-.478v-1.094a1.8 1.8 0 0 1-.656.137c-.903 0-1.436-.492-1.819-1.408-.15-.37-.314-.588-.629-.63-.164-.013-.218-.081-.218-.163 0-.164.273-.287.547-.287.396 0 .738.246 1.093.752.274.396.56.574.903.574.341 0 .56-.123.875-.438.232-.232.41-.437.574-.574"/></symbol><symbol id="GitLab" viewBox="0 0 16 16"><path d="m14.767 6.54-.02-.051-1.905-5.163a.496.496 0 0 0-.948.054l-1.287 4.086h-5.21L4.11 1.38a.5.5 0 0 0-.752-.3.5.5 0 0 0-.196.246l-1.91 5.16-.018.053a3.8 3.8 0 0 0-.097 2.326 3.68 3.68 0 0 0 1.27 1.92l.007.005.017.013 2.903 2.257 1.436 1.128.875.686a.575.575 0 0 0 .712 0l.874-.686 1.436-1.128 2.92-2.27.008-.007a3.7 3.7 0 0 0 1.267-1.918 3.8 3.8 0 0 0-.095-2.323Z"/><path d="m14.767 6.54-.02-.051a6.3 6.3 0 0 0-2.562 1.195L8 10.97c1.425 1.12 2.666 2.092 2.666 2.092l2.92-2.27.008-.007a3.68 3.68 0 0 0 1.269-1.919 3.8 3.8 0 0 0-.096-2.325Z"/><path d="M5.334 13.062 6.77 14.19l.875.686a.575.575 0 0 0 .712 0l.874-.686 1.436-1.128S9.425 12.086 8 10.97zm-1.52-5.378c-.758-.59-1.633-1-2.561-1.198l-.02.052a3.8 3.8 0 0 0-.096 2.326 3.68 3.68 0 0 0 1.27 1.92l.007.005.017.013 2.903 2.257L8 10.967z"/></symbol><symbol id="Meta" viewBox="0 0 16 16"><path d="M11.265 3.002c-1.23 0-2.191.93-3.061 2.11-1.196-1.528-2.197-2.11-3.394-2.11C2.37 3.002.5 6.188.5 9.56c0 2.11 1.018 3.441 2.722 3.441 1.227 0 2.11-.58 3.678-3.331l1.104-1.956q.236.383.498.825l.735 1.241c1.433 2.406 2.232 3.221 3.678 3.221 1.66 0 2.585-1.35 2.585-3.504 0-3.53-1.912-6.496-4.235-6.496M5.704 8.926c-1.272 2-1.712 2.448-2.42 2.448-.729 0-1.162-.641-1.162-1.786 0-2.448 1.217-4.952 2.668-4.952.785 0 1.442.456 2.447 1.9a200 200 0 0 0-1.533 2.39m4.8-.252-.88-1.471a31 31 0 0 0-.686-1.072c.793-1.228 1.447-1.84 2.224-1.84 1.616 0 2.908 2.387 2.908 5.318 0 1.117-.365 1.765-1.12 1.765-.725 0-1.07-.48-2.446-2.7"/></symbol><symbol id="OpenAI" viewBox="0 0 16 16"><path d="M7.056 0a4.05 4.05 0 0 0-3.847 2.79A4 4 0 0 0 .543 4.725a4.03 4.03 0 0 0 .499 4.724 3.97 3.97 0 0 0 .341 3.268 4.04 4.04 0 0 0 4.346 1.94A4 4 0 0 0 8.73 16a4.05 4.05 0 0 0 3.847-2.79 3.98 3.98 0 0 0 2.66-1.935 4.02 4.02 0 0 0-.492-4.724v-.006a4 4 0 0 0-.342-3.272 4.04 4.04 0 0 0-4.34-1.935A4 4 0 0 0 7.056 0m0 1.04-.005.006c.704 0 1.381.244 1.923.693-.022.011-.065.038-.097.055L5.69 3.63a.52.52 0 0 0-.26.456v4.312l-1.371-.79V4.041A3 3 0 0 1 7.056 1.04m3.838 1.256a3 3 0 0 1 2.962 3.507c-.022-.016-.065-.038-.092-.054l-3.186-1.842a.53.53 0 0 0-.526 0L6.32 6.063V4.481l3.083-1.783a3 3 0 0 1 1.492-.402Zm-7.88 1.638V7.72c0 .19.098.358.26.455l3.728 2.151-1.377.797-3.077-1.778a3 3 0 0 1 .466-5.412Zm7.141.937 3.083 1.777a2.995 2.995 0 0 1 1.095 4.097l.005.005a3 3 0 0 1-1.56 1.311V8.274a.52.52 0 0 0-.26-.455L8.783 5.662zM7.89 6.177l1.572.91v1.815l-1.572.91-1.57-.91V7.087zm2.471 1.43 1.37.791v3.56a3 3 0 0 1-2.995 3.002v-.005a3 3 0 0 1-1.919-.694c.022-.01.07-.038.098-.054l3.186-1.837a.51.51 0 0 0 .26-.455zm-.894 2.33v1.582l-3.083 1.777a3.005 3.005 0 0 1-4.096-1.094h.005a2.98 2.98 0 0 1-.358-2.005c.022.016.065.038.093.054l3.185 1.843a.53.53 0 0 0 .526 0z"/></symbol><symbol id="Ramp" fill="none" viewBox="0 0 35 30"><path fill="#08090A" d="M34.286 29.574v.131l-18.674.007v-.138c2.693-1.553 4.552-3.134 6.224-4.787h7.668zM29.659 4.741 24.926 0h-.138s.08 8.835-7.867 16.871C9.145 24.736 0 24.753 0 24.753v.138l4.822 4.823s9.012.091 16.972-7.882c7.931-7.947 7.865-17.091 7.865-17.091"/></symbol></defs></svg>