<svg width="16" height="16" viewBox="0 0 16 16" xmlns="http://www.w3.org/2000/svg" class="FeaturesIllustrations_gridLoader__cGvlO FeaturesIllustrations_gridLoaderAgent__NmzB0" fill="none"><circle class="grid-dot-0-0-agent" cx="1" cy="1" r="1" fill="#e4e5e9" opacity="0.3"/><circle class="grid-dot-0-1-agent" cx="4.5" cy="1" r="1" fill="#e4e5e9" opacity="0.3"/><circle class="grid-dot-0-2-agent" cx="8" cy="1" r="1" fill="#e4e5e9" opacity="0.3"/><circle class="grid-dot-0-3-agent" cx="11.5" cy="1" r="1" fill="#e4e5e9" opacity="0.3"/><circle class="grid-dot-0-4-agent" cx="15" cy="1" r="1" fill="#e4e5e9" opacity="0.3"/><circle class="grid-dot-1-0-agent" cx="1" cy="4.5" r="1" fill="#e4e5e9" opacity="0.3"/><circle class="grid-dot-1-1-agent" cx="4.5" cy="4.5" r="1" fill="#e4e5e9" opacity="0.3"/><circle class="grid-dot-1-2-agent" cx="8" cy="4.5" r="1" fill="#e4e5e9" opacity="0.3"/><circle class="grid-dot-1-3-agent" cx="11.5" cy="4.5" r="1" fill="#e4e5e9" opacity="0.3"/><circle class="grid-dot-1-4-agent" cx="15" cy="4.5" r="1" fill="#e4e5e9" opacity="0.3"/><circle class="grid-dot-2-0-agent" cx="1" cy="8" r="1" fill="#e4e5e9" opacity="0.3"/><circle class="grid-dot-2-1-agent" cx="4.5" cy="8" r="1" fill="#e4e5e9" opacity="0.3"/><circle class="grid-dot-2-2-agent" cx="8" cy="8" r="1" fill="#e4e5e9" opacity="0.3"/><circle class="grid-dot-2-3-agent" cx="11.5" cy="8" r="1" fill="#e4e5e9" opacity="0.3"/><circle class="grid-dot-2-4-agent" cx="15" cy="8" r="1" fill="#e4e5e9" opacity="0.3"/><circle class="grid-dot-3-0-agent" cx="1" cy="11.5" r="1" fill="#e4e5e9" opacity="0.3"/><circle class="grid-dot-3-1-agent" cx="4.5" cy="11.5" r="1" fill="#e4e5e9" opacity="0.3"/><circle class="grid-dot-3-2-agent" cx="8" cy="11.5" r="1" fill="#e4e5e9" opacity="0.3"/><circle class="grid-dot-3-3-agent" cx="11.5" cy="11.5" r="1" fill="#e4e5e9" opacity="0.3"/><circle class="grid-dot-3-4-agent" cx="15" cy="11.5" r="1" fill="#e4e5e9" opacity="0.3"/><circle class="grid-dot-4-0-agent" cx="1" cy="15" r="1" fill="#e4e5e9" opacity="0.3"/><circle class="grid-dot-4-1-agent" cx="4.5" cy="15" r="1" fill="#e4e5e9" opacity="0.3"/><circle class="grid-dot-4-2-agent" cx="8" cy="15" r="1" fill="#e4e5e9" opacity="0.3"/><circle class="grid-dot-4-3-agent" cx="11.5" cy="15" r="1" fill="#e4e5e9" opacity="0.3"/><circle class="grid-dot-4-4-agent" cx="15" cy="15" r="1" fill="#e4e5e9" opacity="0.3"/></svg>