<svg width="64" height="64" viewBox="0 0 56 56" role="img" focusable="false" aria-hidden="true" xmlns="http://www.w3.org/2000/svg" class="sx-1fwcy2r sx-13jp3wb sx-13wgh6h sx-31pjnn sx-m5nenu sx-1fwcy2r sx-13jp3wb sx-12exqgt sx-1tad8l3" style="--x---icon-default-color:var(--color-bg-primary)" fill="var(--color-bg-primary)"><g transform="translate(28, 28) scale(0.8) translate(-28, -28)"><path fill-rule="evenodd" clip-rule="evenodd" d="M41.006 45.9924C40.3216 45.0965 37.6851 41.6452 37.6851 41.6452C37.4377 41.3214 37.0139 41.126 36.559 41.126H20.2059C19.751 41.126 19.3271 41.3214 19.0797 41.6452L15.7593 45.9918C15.6539 46.1296 15.598 46.2901 15.598 46.4542V47.1176C15.598 47.3389 15.7797 47.5182 16.0039 47.5182H40.7609C40.9851 47.5182 41.1668 47.3389 41.1668 47.1176V46.4542C41.1668 46.2901 41.1114 46.1301 41.006 45.9924Z"/><path fill-rule="evenodd" clip-rule="evenodd" d="M34.1059 23.3302C34.1059 13.9426 32.4508 10.0513 27.9003 10.0513C23.8873 10.0513 21.8602 12.7792 21.8602 22.2472C21.8602 31.5947 23.4323 35.446 28.0657 35.446C32.1614 35.446 34.1059 32.758 34.1059 23.3302ZM14 23.0897C14 12.5385 21.4879 8.36621 28.1485 8.36621C35.2641 8.36621 41.9659 12.4985 41.9659 22.4478C41.9659 33.0789 34.4781 37.1311 27.8174 37.1311C20.702 37.1311 14 32.7181 14 23.0897Z"/></g></svg>