<svg width="16" height="16" viewBox="0 0 16 16" role="img" focusable="false" aria-hidden="true" xmlns="http://www.w3.org/2000/svg" class="sx-1fwcy2r sx-13jp3wb sx-13wgh6h sx-31pjnn sx-m5nenu sx-1fwcy2r sx-13jp3wb sx-12exqgt sx-1tad8l3" style="--x---icon-default-color:#02B8CC" fill="#02B8CC"><path fill-rule="evenodd" clip-rule="evenodd" d="M6.5 1C6.73834 1 6.94355 1.16823 6.99029 1.40194L7.92824 6.09167L11.6213 7.01493C11.8439 7.07057 12 7.27057 12 7.5C12 7.72943 11.8439 7.92943 11.6213 7.98507L7.92824 8.90833L6.99029 13.5981C6.94355 13.8318 6.73834 14 6.5 14C6.26166 14 6.05645 13.8318 6.00971 13.5981L5.07176 8.90833L1.37873 7.98507C1.15615 7.92943 1 7.72943 1 7.5C1 7.27057 1.15615 7.07057 1.37873 7.01493L5.07176 6.09167L6.00971 1.40194C6.05645 1.16823 6.26166 1 6.5 1Z"/><path fill-rule="evenodd" clip-rule="evenodd" d="M12.5 10C12.7152 10 12.9063 10.1377 12.9743 10.3419L13.3953 11.6047L14.6581 12.0256C14.8623 12.0937 15 12.2848 15 12.5C15 12.7152 14.8623 12.9063 14.6581 12.9743L13.3953 13.3953L12.9743 14.6581C12.9063 14.8623 12.7152 15 12.5 15C12.2848 15 12.0937 14.8623 12.0257 14.6581L11.6047 13.3953L10.3419 12.9743C10.1377 12.9063 10 12.7152 10 12.5C10 12.2848 10.1377 12.0937 10.3419 12.0256L11.6047 11.6047L12.0257 10.3419C12.0937 10.1377 12.2848 10 12.5 10Z"/></svg>