<svg xmlns="http://www.w3.org/2000/svg" width="59" height="357" fill="none" viewBox="0 0 59 357"><circle cx="5" cy="209" r="3.5" fill="#E5591D" stroke="#08090A"/><circle cx="12" cy="257" r="3.5" fill="#E5591D" stroke="#08090A"/><circle cx="32" cy="310" r="3.5" fill="#E5591D" stroke="#08090A"/><circle cx="23" cy="193" r="3.5" fill="#E5591D" stroke="#08090A"/><circle cx="14" cy="284" r="3.5" fill="#E5591D" stroke="#08090A"/><circle cx="20" cy="211" r="3.5" fill="#E5591D" stroke="#08090A"/><circle cx="21" cy="214" r="3.5" fill="#E5591D" stroke="#08090A"/><circle cx="13" cy="219" r="3.5" fill="#E5591D" stroke="#08090A"/><circle cx="32" cy="190" r="3.5" fill="#E5591D" stroke="#08090A"/><circle cx="29" cy="200" r="3.5" fill="#E5591D" stroke="#08090A"/><circle cx="26" cy="195" r="3.5" fill="#E5591D" stroke="#08090A"/><circle cx="11" cy="205" r="3.5" fill="#E5591D" stroke="#08090A"/><circle cx="16" cy="135" r="3.5" fill="#E5591D" stroke="#08090A"/><circle cx="42" cy="239" r="3.5" fill="#E5591D" stroke="#08090A"/><circle cx="11" cy="122" r="3.5" fill="#E5591D" stroke="#08090A"/><circle cx="25" cy="247" r="3.5" fill="#E5591D" stroke="#08090A"/><circle cx="16" cy="285" r="3.5" fill="#E5591D" stroke="#08090A"/><circle cx="14" cy="323" r="3.5" fill="#E5591D" stroke="#08090A"/><circle cx="6" cy="239" r="3.5" fill="#E5591D" stroke="#08090A"/><circle cx="16" cy="210" r="3.5" fill="#E5591D" stroke="#08090A"/><circle cx="38" cy="170" r="3.5" fill="#E5591D" stroke="#08090A"/><circle cx="31" cy="293" r="3.5" fill="#E5591D" stroke="#08090A"/><circle cx="6" cy="229" r="3.5" fill="#E5591D" stroke="#08090A"/><circle cx="4" cy="251" r="3.5" fill="#E5591D" stroke="#08090A"/><circle cx="31" cy="226" r="3.5" fill="#E5591D" stroke="#08090A"/><circle cx="45" cy="219" r="3.5" fill="#E5591D" stroke="#08090A"/><circle cx="12" cy="353" r="3.5" fill="#E5591D" stroke="#08090A"/><circle cx="21" cy="244" r="3.5" fill="#E5591D" stroke="#08090A"/><circle cx="31" cy="246" r="3.5" fill="#E5591D" stroke="#08090A"/><circle cx="26" cy="239" r="3.5" fill="#E5591D" stroke="#08090A"/><circle cx="28" cy="124" r="3.5" fill="#E5591D" stroke="#08090A"/><circle cx="50" cy="325" r="3.5" fill="#E5591D" stroke="#08090A"/><circle cx="6" cy="312" r="3.5" fill="#E5591D" stroke="#08090A"/><circle cx="27" cy="223" r="3.5" fill="#E5591D" stroke="#08090A"/><circle cx="27" cy="296" r="3.5" fill="#E5591D" stroke="#08090A"/><circle cx="25" cy="219" r="3.5" fill="#E5591D" stroke="#08090A"/><circle cx="33" cy="268" r="3.5" fill="#E5591D" stroke="#08090A"/><circle cx="27" cy="280" r="3.5" fill="#E5591D" stroke="#08090A"/><circle cx="44" cy="179" r="3.5" fill="#E5591D" stroke="#08090A"/><circle cx="20" cy="263" r="3.5" fill="#E5591D" stroke="#08090A"/><circle cx="20" cy="74" r="3.5" fill="#E5591D" stroke="#08090A"/><circle cx="29" cy="170" r="3.5" fill="#E5591D" stroke="#08090A"/><circle cx="25" cy="352" r="3.5" fill="#E5591D" stroke="#08090A"/><circle cx="46" cy="267" r="3.5" fill="#E5591D" stroke="#08090A"/><circle cx="12" cy="198" r="3.5" fill="#E5591D" stroke="#08090A"/><circle cx="54" cy="249" r="3.5" fill="#E5591D" stroke="#08090A"/><circle cx="5" cy="255" r="3.5" fill="#E5591D" stroke="#08090A"/><circle cx="42" cy="254" r="3.5" fill="#E5591D" stroke="#08090A"/><circle cx="35" cy="211" r="3.5" fill="#E5591D" stroke="#08090A"/><circle cx="4" cy="222" r="3.5" fill="#E5591D" stroke="#08090A"/><circle cx="12" cy="222" r="3.5" fill="#E5591D" stroke="#08090A"/><circle cx="10" cy="98" r="3.5" fill="#E5591D" stroke="#08090A"/><circle cx="32" cy="68" r="3.5" fill="#E5591D" stroke="#08090A"/><circle cx="37" cy="49" r="3.5" fill="#E5591D" stroke="#08090A"/><circle cx="31" cy="106" r="3.5" fill="#E5591D" stroke="#08090A"/><circle cx="52" cy="88" r="3.5" fill="#E5591D" stroke="#08090A"/><circle cx="24" cy="99" r="3.5" fill="#E5591D" stroke="#08090A"/><circle cx="19" cy="101" r="3.5" fill="#E5591D" stroke="#08090A"/><circle cx="8" cy="112" r="3.5" fill="#E5591D" stroke="#08090A"/><circle cx="14" cy="126" r="3.5" fill="#E5591D" stroke="#08090A"/><circle cx="9" cy="105" r="3.5" fill="#E5591D" stroke="#08090A"/><circle cx="31" cy="110" r="3.5" fill="#E5591D" stroke="#08090A"/><circle cx="26" cy="115" r="3.5" fill="#E5591D" stroke="#08090A"/><circle cx="32" cy="138" r="3.5" fill="#E5591D" stroke="#08090A"/><circle cx="38" cy="133" r="3.5" fill="#E5591D" stroke="#08090A"/><circle cx="44" cy="148" r="3.5" fill="#E5591D" stroke="#08090A"/><circle cx="9" cy="84" r="3.5" fill="#E5591D" stroke="#08090A"/><circle cx="6" cy="57" r="3.5" fill="#E5591D" stroke="#08090A"/><circle cx="10" cy="44" r="3.5" fill="#E5591D" stroke="#08090A"/><circle cx="20" cy="4" r="3.5" fill="#E5591D" stroke="#08090A"/><circle cx="29" cy="15" r="3.5" fill="#E5591D" stroke="#08090A"/><circle cx="16" cy="76" r="3.5" fill="#E5591D" stroke="#08090A"/><circle cx="28" cy="88" r="3.5" fill="#E5591D" stroke="#08090A"/><circle cx="25" cy="82" r="3.5" fill="#E5591D" stroke="#08090A"/><circle cx="22" cy="66" r="3.5" fill="#E5591D" stroke="#08090A"/><circle cx="35" cy="66" r="3.5" fill="#E5591D" stroke="#08090A"/></svg>