<svg xmlns="http://www.w3.org/2000/svg" width="59" height="381" fill="none" viewBox="0 0 59 381"><circle cx="51" cy="358" r="3.5" fill="#4354B8" stroke="#08090A"/><circle cx="8" cy="332" r="3.5" fill="#4354B8" stroke="#08090A"/><circle cx="25" cy="251" r="3.5" fill="#4354B8" stroke="#08090A"/><circle cx="31" cy="273" r="3.5" fill="#4354B8" stroke="#08090A"/><circle cx="18" cy="263" r="3.5" fill="#4354B8" stroke="#08090A"/><circle cx="41" cy="143" r="3.5" fill="#4354B8" stroke="#08090A"/><circle cx="46" cy="265" r="3.5" fill="#4354B8" stroke="#08090A"/><circle cx="25" cy="279" r="3.5" fill="#4354B8" stroke="#08090A"/><circle cx="21" cy="295" r="3.5" fill="#4354B8" stroke="#08090A"/><circle cx="27" cy="250" r="3.5" fill="#4354B8" stroke="#08090A"/><circle cx="17" cy="268" r="3.5" fill="#4354B8" stroke="#08090A"/><circle cx="5" cy="212" r="3.5" fill="#4354B8" stroke="#08090A"/><circle cx="31" cy="315" r="3.5" fill="#4354B8" stroke="#08090A"/><circle cx="35" cy="331" r="3.5" fill="#4354B8" stroke="#08090A"/><circle cx="46" cy="317" r="3.5" fill="#4354B8" stroke="#08090A"/><circle cx="52" cy="260" r="3.5" fill="#4354B8" stroke="#08090A"/><circle cx="45" cy="249" r="3.5" fill="#4354B8" stroke="#08090A"/><circle cx="45" cy="224" r="3.5" fill="#4354B8" stroke="#08090A"/><circle cx="31" cy="211" r="3.5" fill="#4354B8" stroke="#08090A"/><circle cx="35" cy="309" r="3.5" fill="#4354B8" stroke="#08090A"/><circle cx="10" cy="283" r="3.5" fill="#4354B8" stroke="#08090A"/><circle cx="17" cy="212" r="3.5" fill="#4354B8" stroke="#08090A"/><circle cx="22" cy="281" r="3.5" fill="#4354B8" stroke="#08090A"/><circle cx="25" cy="299" r="3.5" fill="#4354B8" stroke="#08090A"/><circle cx="28" cy="346" r="3.5" fill="#4354B8" stroke="#08090A"/><circle cx="39" cy="159" r="3.5" fill="#4354B8" stroke="#08090A"/><circle cx="12" cy="331" r="3.5" fill="#4354B8" stroke="#08090A"/><circle cx="36" cy="295" r="3.5" fill="#4354B8" stroke="#08090A"/><circle cx="27" cy="323" r="3.5" fill="#4354B8" stroke="#08090A"/><circle cx="33" cy="377" r="3.5" fill="#4354B8" stroke="#08090A"/><circle cx="34" cy="334" r="3.5" fill="#4354B8" stroke="#08090A"/><circle cx="46" cy="334" r="3.5" fill="#4354B8" stroke="#08090A"/><circle cx="11" cy="218" r="3.5" fill="#4354B8" stroke="#08090A"/><circle cx="31" cy="376" r="3.5" fill="#4354B8" stroke="#08090A"/><circle cx="25" cy="364" r="3.5" fill="#4354B8" stroke="#08090A"/><circle cx="36" cy="242" r="3.5" fill="#4354B8" stroke="#08090A"/><circle cx="14" cy="358" r="3.5" fill="#4354B8" stroke="#08090A"/><circle cx="41" cy="351" r="3.5" fill="#4354B8" stroke="#08090A"/><circle cx="34" cy="296" r="3.5" fill="#4354B8" stroke="#08090A"/><circle cx="31" cy="341" r="3.5" fill="#4354B8" stroke="#08090A"/><circle cx="20" cy="264" r="3.5" fill="#4354B8" stroke="#08090A"/><circle cx="27" cy="261" r="3.5" fill="#4354B8" stroke="#08090A"/><circle cx="32" cy="338" r="3.5" fill="#4354B8" stroke="#08090A"/><circle cx="6" cy="340" r="3.5" fill="#4354B8" stroke="#08090A"/><circle cx="42" cy="288" r="3.5" fill="#4354B8" stroke="#08090A"/><circle cx="35" cy="318" r="3.5" fill="#4354B8" stroke="#08090A"/><circle cx="22" cy="274" r="3.5" fill="#4354B8" stroke="#08090A"/><circle cx="36" cy="285" r="3.5" fill="#4354B8" stroke="#08090A"/><circle cx="27" cy="295" r="3.5" fill="#4354B8" stroke="#08090A"/><circle cx="20" cy="252" r="3.5" fill="#4354B8" stroke="#08090A"/><circle cx="26" cy="284" r="3.5" fill="#4354B8" stroke="#08090A"/><circle cx="33" cy="291" r="3.5" fill="#4354B8" stroke="#08090A"/><circle cx="44" cy="188" r="3.5" fill="#4354B8" stroke="#08090A"/><circle cx="42" cy="202" r="3.5" fill="#4354B8" stroke="#08090A"/><circle cx="37" cy="184" r="3.5" fill="#4354B8" stroke="#08090A"/><circle cx="37" cy="166" r="3.5" fill="#4354B8" stroke="#08090A"/><circle cx="39" cy="202" r="3.5" fill="#4354B8" stroke="#08090A"/><circle cx="48" cy="179" r="3.5" fill="#4354B8" stroke="#08090A"/><circle cx="32" cy="192" r="3.5" fill="#4354B8" stroke="#08090A"/><circle cx="11" cy="185" r="3.5" fill="#4354B8" stroke="#08090A"/><circle cx="34" cy="170" r="3.5" fill="#4354B8" stroke="#08090A"/><circle cx="32" cy="166" r="3.5" fill="#4354B8" stroke="#08090A"/><circle cx="34" cy="187" r="3.5" fill="#4354B8" stroke="#08090A"/><circle cx="25" cy="188" r="3.5" fill="#4354B8" stroke="#08090A"/><circle cx="18" cy="184" r="3.5" fill="#4354B8" stroke="#08090A"/><circle cx="7" cy="173" r="3.5" fill="#4354B8" stroke="#08090A"/><circle cx="50" cy="183" r="3.5" fill="#4354B8" stroke="#08090A"/><circle cx="32" cy="168" r="3.5" fill="#4354B8" stroke="#08090A"/><circle cx="33" cy="194" r="3.5" fill="#4354B8" stroke="#08090A"/><circle cx="23" cy="163" r="3.5" fill="#4354B8" stroke="#08090A"/><circle cx="26" cy="188" r="3.5" fill="#4354B8" stroke="#08090A"/><circle cx="14" cy="199" r="3.5" fill="#4354B8" stroke="#08090A"/><circle cx="22" cy="69" r="3.5" fill="#4354B8" stroke="#08090A"/><circle cx="40" cy="212" r="3.5" fill="#4354B8" stroke="#08090A"/><circle cx="29" cy="87" r="3.5" fill="#4354B8" stroke="#08090A"/><circle cx="31" cy="132" r="3.5" fill="#4354B8" stroke="#08090A"/><circle cx="17" cy="53" r="3.5" fill="#4354B8" stroke="#08090A"/><circle cx="19" cy="177" r="3.5" fill="#4354B8" stroke="#08090A"/><circle cx="17" cy="87" r="3.5" fill="#4354B8" stroke="#08090A"/><circle cx="30" cy="126" r="3.5" fill="#4354B8" stroke="#08090A"/><circle cx="28" cy="116" r="3.5" fill="#4354B8" stroke="#08090A"/><circle cx="4" cy="203" r="3.5" fill="#4354B8" stroke="#08090A"/><circle cx="45" cy="168" r="3.5" fill="#4354B8" stroke="#08090A"/><circle cx="21" cy="121" r="3.5" fill="#4354B8" stroke="#08090A"/><circle cx="24" cy="116" r="3.5" fill="#4354B8" stroke="#08090A"/><circle cx="28" cy="12" r="3.5" fill="#4354B8" stroke="#08090A"/><circle cx="21" cy="128" r="3.5" fill="#4354B8" stroke="#08090A"/><circle cx="29" cy="190" r="3.5" fill="#4354B8" stroke="#08090A"/><circle cx="39" cy="153" r="3.5" fill="#4354B8" stroke="#08090A"/><circle cx="27" cy="185" r="3.5" fill="#4354B8" stroke="#08090A"/><circle cx="25" cy="104" r="3.5" fill="#4354B8" stroke="#08090A"/><circle cx="54" cy="56" r="3.5" fill="#4354B8" stroke="#08090A"/><circle cx="39" cy="142" r="3.5" fill="#4354B8" stroke="#08090A"/><circle cx="31" cy="115" r="3.5" fill="#4354B8" stroke="#08090A"/><circle cx="10" cy="174" r="3.5" fill="#4354B8" stroke="#08090A"/><circle cx="40" cy="85" r="3.5" fill="#4354B8" stroke="#08090A"/><circle cx="42" cy="40" r="3.5" fill="#4354B8" stroke="#08090A"/><circle cx="40" cy="22" r="3.5" fill="#4354B8" stroke="#08090A"/><circle cx="39" cy="52" r="3.5" fill="#4354B8" stroke="#08090A"/><circle cx="33" cy="134" r="3.5" fill="#4354B8" stroke="#08090A"/><circle cx="43" cy="210" r="3.5" fill="#4354B8" stroke="#08090A"/><circle cx="31" cy="119" r="3.5" fill="#4354B8" stroke="#08090A"/><circle cx="25" cy="83" r="3.5" fill="#4354B8" stroke="#08090A"/><circle cx="21" cy="100" r="3.5" fill="#4354B8" stroke="#08090A"/><circle cx="34" cy="180" r="3.5" fill="#4354B8" stroke="#08090A"/><circle cx="40" cy="156" r="3.5" fill="#4354B8" stroke="#08090A"/><circle cx="37" cy="142" r="3.5" fill="#4354B8" stroke="#08090A"/><circle cx="40" cy="130" r="3.5" fill="#4354B8" stroke="#08090A"/><circle cx="35" cy="146" r="3.5" fill="#4354B8" stroke="#08090A"/><circle cx="15" cy="175" r="3.5" fill="#4354B8" stroke="#08090A"/><circle cx="18" cy="23" r="3.5" fill="#4354B8" stroke="#08090A"/><circle cx="27" cy="198" r="3.5" fill="#4354B8" stroke="#08090A"/><circle cx="28" cy="183" r="3.5" fill="#4354B8" stroke="#08090A"/><circle cx="22" cy="140" r="3.5" fill="#4354B8" stroke="#08090A"/><circle cx="33" cy="166" r="3.5" fill="#4354B8" stroke="#08090A"/><circle cx="36" cy="41" r="3.5" fill="#4354B8" stroke="#08090A"/><circle cx="33" cy="191" r="3.5" fill="#4354B8" stroke="#08090A"/><circle cx="31" cy="154" r="3.5" fill="#4354B8" stroke="#08090A"/><circle cx="14" cy="173" r="3.5" fill="#4354B8" stroke="#08090A"/><circle cx="29" cy="4" r="3.5" fill="#4354B8" stroke="#08090A"/><circle cx="23" cy="61" r="3.5" fill="#4354B8" stroke="#08090A"/><circle cx="29" cy="91" r="3.5" fill="#4354B8" stroke="#08090A"/><circle cx="29" cy="140" r="3.5" fill="#4354B8" stroke="#08090A"/><circle cx="43" cy="213" r="3.5" fill="#4354B8" stroke="#08090A"/></svg>