<svg data-custom-fill="" width="14" height="14" viewBox="0 0 16 16" role="img" focusable="false" aria-hidden="true" xmlns="http://www.w3.org/2000/svg" class="sx-1fwcy2r sx-13jp3wb sx-13wgh6h sx-31pjnn sx-m5nenu sx-1fwcy2r sx-13jp3wb sx-12exqgt sx-1tad8l3" style="--x---icon-default-color:var(--color-text-tertiary)" fill="var(--color-text-tertiary)"><path fill-rule="evenodd" clip-rule="evenodd" d="M11.75 1C13.5449 1 15 2.45507 15 4.25V5.75C15 6.16421 14.6642 6.5 14.25 6.5C13.8358 6.5 13.5 6.16421 13.5 5.75V4.25C13.5 3.2835 12.7165 2.5 11.75 2.5H4.25C3.2835 2.5 2.5 3.2835 2.5 4.25V11.75C2.5 12.7165 3.2835 13.5 4.25 13.5H5.75C6.16421 13.5 6.5 13.8358 6.5 14.25C6.5 14.6642 6.16421 15 5.75 15H4.25C2.45507 15 1 13.5449 1 11.75V4.25C1 2.45507 2.45507 1 4.25 1H11.75Z"/><path fill-rule="evenodd" clip-rule="evenodd" d="M6.05273 7.29883C5.79591 6.52818 6.52818 5.79591 7.29883 6.05273L14.3252 8.39551C15.1585 8.67345 15.2406 9.82021 14.4551 10.2129L11.9209 11.4795C11.7301 11.5749 11.5749 11.7301 11.4795 11.9209L10.2129 14.4551C9.82021 15.2406 8.67345 15.1585 8.39551 14.3252L6.05273 7.29883Z"/></svg>