<svg width="64" height="64" viewBox="0 0 56 56" role="img" focusable="false" aria-hidden="true" xmlns="http://www.w3.org/2000/svg" class="sx-1fwcy2r sx-13jp3wb sx-13wgh6h sx-31pjnn sx-m5nenu sx-1fwcy2r sx-13jp3wb sx-12exqgt sx-1tad8l3" style="--x---icon-default-color:var(--color-bg-primary)" fill="var(--color-bg-primary)"><path d="m24.404 23.821 7.684-4.469a1.025 1.025 0 0 1 1.102 0l6.061 3.551c.031-.245.031-.49.031-.704 0-3.03-2.327-5.878-6-5.878-.98 0-1.928.215-2.724.674l-5.848 3.367c-.214.123-.306.306-.306.551v2.908Zm13.653 11.327c2.174-.888 3.552-3.031 3.552-5.358 0-2.02-1.133-4.101-2.817-5.081l-5.847-3.367a.557.557 0 0 0-.612 0l-2.51 1.439 7.683 4.469c.368.214.551.52.551.949v6.95Zm-15.459-6.122v-8.878c0-.428.184-.735.551-.949l6.031-3.49c-1.01-.765-2.204-1.194-3.49-1.194-3.398 0-5.908 2.48-5.908 5.756v6.734c0 .245.092.429.306.551l2.51 1.47Zm5.403 3.122 3.597-2.02v-4.286l-3.597-2.02-3.597 2.02v4.286l3.597 2.02Zm2.312 9.306c3.397 0 5.938-2.48 5.938-5.755v-6.735c0-.245-.092-.429-.306-.55l-2.54-1.47v8.877c0 .43-.184.735-.552.95l-6.03 3.49c1.01.765 2.204 1.193 3.49 1.193Zm-7.256-6.826a.557.557 0 0 0 .613 0l2.51-1.44-7.654-4.438c-.367-.214-.55-.52-.55-.949v-6.98a5.769 5.769 0 0 0-3.582 5.358c0 2.02 1.132 4.102 2.816 5.081l5.847 3.368Zm-.336 5.02c.98 0 1.928-.214 2.724-.673l5.847-3.367c.214-.123.306-.306.306-.551v-2.909l-7.684 4.439a1.025 1.025 0 0 1-1.102 0l-6.03-3.49-.001.006c-.03.243-.06.486-.06.729 0 3.214 2.54 5.816 6 5.816Zm7.592 3.643h-.008a7.672 7.672 0 0 1-5.35-2.204 7.28 7.28 0 0 1-2.418.398c-4.102 0-7.653-3.276-7.653-7.654 0-.642.092-1.285.245-1.928-1.653-1.5-2.572-3.581-2.572-5.724 0-3.276 2.204-6.49 5.633-7.378a7.654 7.654 0 0 1 7.5-6.122c2.082 0 3.98.857 5.357 2.204a7.28 7.28 0 0 1 2.419-.398c4.102 0 7.653 3.275 7.653 7.653 0 .642-.092 1.285-.245 1.928 1.651 1.499 2.57 3.577 2.572 5.717v.015c-.004 3.273-2.207 6.483-5.633 7.37a7.654 7.654 0 0 1-7.493 6.123h-.007Z"/><path fill-rule="evenodd" d="M43.446 29.783v.015c-.004 3.273-2.207 6.483-5.633 7.37a7.654 7.654 0 0 1-7.493 6.123h-.015a7.672 7.672 0 0 1-5.35-2.204 7.28 7.28 0 0 1-2.418.398c-4.102 0-7.653-3.276-7.653-7.654 0-.642.092-1.285.245-1.928-1.653-1.5-2.572-3.581-2.572-5.724 0-3.276 2.204-6.49 5.633-7.378a7.654 7.654 0 0 1 7.5-6.122c2.082 0 3.98.857 5.357 2.204a7.28 7.28 0 0 1 2.419-.398c4.102 0 7.653 3.275 7.653 7.653 0 .642-.092 1.285-.245 1.928 1.651 1.499 2.57 3.577 2.572 5.717Zm-20.389 4.845L17.21 31.26c-1.684-.98-2.816-3.06-2.816-5.081a5.769 5.769 0 0 1 3.581-5.357v6.98c0 .428.184.734.551.948l7.654 4.439-2.51 1.439a.557.557 0 0 1-.613 0Zm-2.97-7.072 2.511 1.47v-8.878c0-.428.184-.735.551-.949l6.031-3.49c-1.01-.765-2.204-1.194-3.49-1.194-3.398 0-5.908 2.48-5.908 5.756v6.734c0 .245.092.429.306.551Zm4.317-6.643v2.908l7.684-4.469a1.025 1.025 0 0 1 1.102 0l6.061 3.551c.031-.245.031-.49.031-.704 0-3.03-2.327-5.878-6-5.878-.98 0-1.928.215-2.724.674l-5.848 3.367c-.214.123-.306.306-.306.551Zm13.653 14.235v-6.95c0-.428-.183-.734-.55-.948l-7.684-4.47 2.51-1.438a.557.557 0 0 1 .612 0l5.847 3.367c1.684.98 2.817 3.061 2.817 5.082 0 2.326-1.378 4.47-3.552 5.357ZM26.823 40.26c1.01.766 2.204 1.194 3.49 1.194 3.397 0 5.938-2.48 5.938-5.755v-6.735c0-.245-.092-.429-.306-.55l-2.54-1.47v8.877c0 .43-.184.735-.552.95l-6.03 3.49ZM28 32.148l-3.597-2.02v-4.286l3.597-2.02 3.597 2.02v4.286l-3.597 2.02Zm-11.28 1.684c0 3.214 2.54 5.816 6 5.816.98 0 1.928-.214 2.724-.673l5.847-3.367c.214-.123.306-.306.306-.551v-2.909l-7.684 4.439a1.025 1.025 0 0 1-1.102 0l-6.03-3.49-.001.006c-.03.243-.06.486-.06.729Z" clip-rule="evenodd"/></svg>