<svg xmlns="http://www.w3.org/2000/svg" width="14" height="14" fill="none" viewBox="0 0 14 14"><g fill="#D4A600" clip-path="url(#clip0_2237_10003)"><rect width="14" height="14" x="14" y="14" opacity="0.2" rx="7" transform="rotate(180 14 14)"/><path fill-rule="evenodd" d="M5.578 10.648a.66.66 0 0 1-.558-.186L2.999 8.441a.656.656 0 0 1 .928-.928l1.4 1.4L7.94 4.126a.656.656 0 0 1 1.04-.15L11 5.997a.656.656 0 0 1-.928.928L8.672 5.524 6.06 10.312a.66.66 0 0 1-.482.336" clip-rule="evenodd"/></g><defs><clipPath id="clip0_2237_10003"><path fill="#fff" d="M14 0H0v14h14z"/></clipPath></defs></svg>