<svg width="16" height="16" viewBox="0 0 16 16" role="img" focusable="false" aria-hidden="true" xmlns="http://www.w3.org/2000/svg" class="sx-1fwcy2r sx-13jp3wb sx-13wgh6h sx-31pjnn sx-m5nenu sx-1fwcy2r sx-13jp3wb sx-12exqgt sx-1tad8l3" style="--x---icon-default-color:currentColor" fill="currentColor"><path fill-rule="evenodd" clip-rule="evenodd" d="M7.25 1C7.66414 1 7.99988 1.33589 8 1.75C8 2.16421 7.66421 2.5 7.25 2.5H4.75C3.50745 2.5 2.50012 3.50744 2.5 4.75V11.25C2.5 12.4926 3.50736 13.5 4.75 13.5H11.25C12.4926 13.5 13.5 12.4926 13.5 11.25V8.75C13.5001 8.33589 13.8359 8 14.25 8C14.6641 8 14.9999 8.33589 15 8.75V11.25C15 13.3211 13.3211 15 11.25 15H4.75C2.67893 15 1 13.3211 1 11.25V4.75C1.00012 2.67905 2.67899 1 4.75 1H7.25Z"/><path fill-rule="evenodd" clip-rule="evenodd" d="M13.4326 1.26953C13.7913 0.910937 14.3728 0.910883 14.7314 1.26953C15.0897 1.6282 15.0899 2.20981 14.7314 2.56836L9.2373 8.06152C8.68101 8.6177 7.94043 8.95161 7.15527 9C7.06754 9.0052 6.99468 8.93248 7 8.84473C7.04847 8.05961 7.38232 7.31897 7.93848 6.7627L13.4326 1.26953Z"/></svg>