<svg width="16" height="16" viewBox="0 0 16 16" role="img" focusable="false" aria-hidden="true" xmlns="http://www.w3.org/2000/svg" class="sx-1fwcy2r sx-13jp3wb sx-13wgh6h sx-31pjnn sx-m5nenu sx-1fwcy2r sx-13jp3wb sx-12exqgt sx-1tad8l3" style="--x---icon-default-color:var(--color-text-quaternary)" fill="var(--color-text-quaternary)"><path d="M3.95144 9.85024C3.95144 10.6639 3.29432 11.3216 2.48128 11.3216C1.66823 11.3216 1.01111 10.6639 1.01111 9.85024C1.01111 9.03655 1.66823 8.37891 2.48128 8.37891H3.95144V9.85024ZM4.68653 9.85024C4.68653 9.03655 5.34365 8.37891 6.15669 8.37891C6.96974 8.37891 7.62686 9.03655 7.62686 9.85024V13.5286C7.62686 14.3423 6.96974 14.9999 6.15669 14.9999C5.34365 14.9999 4.68653 14.3423 4.68653 13.5286V9.85024Z" fill="var(--icon-color, #E01E5A)"/><path d="M9.84333 12.0573C10.6564 12.0573 11.3135 12.7149 11.3135 13.5286C11.3135 14.3423 10.6564 14.9999 9.84333 14.9999C9.03029 14.9999 8.37317 14.3423 8.37317 13.5286V12.0573H9.84333ZM9.84333 11.3216C9.03029 11.3216 8.37317 10.6639 8.37317 9.85024C8.37317 9.03655 9.03029 8.37891 9.84333 8.37891H13.5299C14.3429 8.37891 15.0001 9.03655 15.0001 9.85024C15.0001 10.6639 14.3429 11.3216 13.5299 11.3216H9.84333Z" fill="var(--icon-color, #ECB22E)"/><path d="M12.0486 6.16083C12.0486 5.34713 12.7057 4.68949 13.5188 4.68949C14.3318 4.68949 14.9889 5.34713 14.9889 6.16083C14.9889 6.97452 14.3318 7.63217 13.5188 7.63217H12.0486V6.16083ZM11.3135 6.16083C11.3135 6.97452 10.6564 7.63217 9.84334 7.63217C9.03029 7.63217 8.37317 6.97452 8.37317 6.16083V2.47134C8.37317 1.65764 9.03029 1 9.84334 1C10.6564 1 11.3135 1.65764 11.3135 2.47134V6.16083Z" fill="var(--icon-color, #2EB67D)"/><path d="M6.15672 3.94268C5.34368 3.94268 4.68655 3.28503 4.68655 2.47134C4.68655 1.65764 5.34368 1 6.15672 1C6.96977 1 7.62689 1.65764 7.62689 2.47134V3.94268H6.15672ZM6.15672 4.68949C6.96977 4.68949 7.62689 5.34713 7.62689 6.16083C7.62689 6.97452 6.96977 7.63217 6.15672 7.63217H2.47017C1.65712 7.63217 1 6.97452 1 6.16083C1 5.34713 1.65712 4.68949 2.47017 4.68949H6.15672Z" fill="var(--icon-color, #36C5F0)"/></svg>