<svg xmlns="http://www.w3.org/2000/svg" width="14" height="14" fill="none" viewBox="0 0 14 14"><g fill="#008D2C" clip-path="url(#clip0_2237_10020)"><rect width="14" height="14" x="14" y="14" opacity="0.2" rx="7" transform="rotate(180 14 14)"/><path fill-rule="evenodd" d="M2.904 9.01a.656.656 0 0 1-.061-.926l2.652-3.032a.656.656 0 0 1 1.04.068L8.081 7.44l2.089-2.387a.656.656 0 1 1 .987.864L8.504 8.948a.656.656 0 0 1-1.04-.068L5.92 6.561 3.83 8.948a.656.656 0 0 1-.926.062" clip-rule="evenodd"/></g><defs><clipPath id="clip0_2237_10020"><path fill="#fff" d="M14 0H0v14h14z"/></clipPath></defs></svg>