<svg xmlns="http://www.w3.org/2000/svg" width="59" height="338" fill="none" viewBox="0 0 59 338"><circle cx="21" cy="214" r="3.5" fill="#8A8F98" stroke="#08090A"/><circle cx="11" cy="213" r="3.5" fill="#8A8F98" stroke="#08090A"/><circle cx="37" cy="170" r="3.5" fill="#8A8F98" stroke="#08090A"/><circle cx="34" cy="226" r="3.5" fill="#8A8F98" stroke="#08090A"/><circle cx="26" cy="294" r="3.5" fill="#8A8F98" stroke="#08090A"/><circle cx="31" cy="227" r="3.5" fill="#8A8F98" stroke="#08090A"/><circle cx="26" cy="258" r="3.5" fill="#8A8F98" stroke="#08090A"/><circle cx="39" cy="323" r="3.5" fill="#8A8F98" stroke="#08090A"/><circle cx="24" cy="205" r="3.5" fill="#8A8F98" stroke="#08090A"/><circle cx="26" cy="303" r="3.5" fill="#8A8F98" stroke="#08090A"/><circle cx="31" cy="148" r="3.5" fill="#8A8F98" stroke="#08090A"/><circle cx="13" cy="103" r="3.5" fill="#8A8F98" stroke="#08090A"/><circle cx="16" cy="334" r="3.5" fill="#8A8F98" stroke="#08090A"/><circle cx="17" cy="189" r="3.5" fill="#8A8F98" stroke="#08090A"/><circle cx="53" cy="166" r="3.5" fill="#8A8F98" stroke="#08090A"/><circle cx="29" cy="232" r="3.5" fill="#8A8F98" stroke="#08090A"/><circle cx="20" cy="157" r="3.5" fill="#8A8F98" stroke="#08090A"/><circle cx="10" cy="293" r="3.5" fill="#8A8F98" stroke="#08090A"/><circle cx="14" cy="290" r="3.5" fill="#8A8F98" stroke="#08090A"/><circle cx="41" cy="191" r="3.5" fill="#8A8F98" stroke="#08090A"/><circle cx="41" cy="177" r="3.5" fill="#8A8F98" stroke="#08090A"/><circle cx="54" cy="155" r="3.5" fill="#8A8F98" stroke="#08090A"/><circle cx="37" cy="90" r="3.5" fill="#8A8F98" stroke="#08090A"/><circle cx="43" cy="246" r="3.5" fill="#8A8F98" stroke="#08090A"/><circle cx="29" cy="154" r="3.5" fill="#8A8F98" stroke="#08090A"/><circle cx="4" cy="185" r="3.5" fill="#8A8F98" stroke="#08090A"/><circle cx="48" cy="171" r="3.5" fill="#8A8F98" stroke="#08090A"/><circle cx="12" cy="308" r="3.5" fill="#8A8F98" stroke="#08090A"/><circle cx="4" cy="315" r="3.5" fill="#8A8F98" stroke="#08090A"/><circle cx="14" cy="177" r="3.5" fill="#8A8F98" stroke="#08090A"/><circle cx="45" cy="269" r="3.5" fill="#8A8F98" stroke="#08090A"/><circle cx="26" cy="175" r="3.5" fill="#8A8F98" stroke="#08090A"/><circle cx="36" cy="215" r="3.5" fill="#8A8F98" stroke="#08090A"/><circle cx="41" cy="207" r="3.5" fill="#8A8F98" stroke="#08090A"/><circle cx="30" cy="212" r="3.5" fill="#8A8F98" stroke="#08090A"/><circle cx="20" cy="280" r="3.5" fill="#8A8F98" stroke="#08090A"/><circle cx="11" cy="267" r="3.5" fill="#8A8F98" stroke="#08090A"/><circle cx="22" cy="275" r="3.5" fill="#8A8F98" stroke="#08090A"/><circle cx="25" cy="241" r="3.5" fill="#8A8F98" stroke="#08090A"/><circle cx="12" cy="266" r="3.5" fill="#8A8F98" stroke="#08090A"/><circle cx="49" cy="262" r="3.5" fill="#8A8F98" stroke="#08090A"/><circle cx="17" cy="249" r="3.5" fill="#8A8F98" stroke="#08090A"/><circle cx="4" cy="326" r="3.5" fill="#8A8F98" stroke="#08090A"/><circle cx="47" cy="280" r="3.5" fill="#8A8F98" stroke="#08090A"/><circle cx="22" cy="262" r="3.5" fill="#8A8F98" stroke="#08090A"/><circle cx="42" cy="299" r="3.5" fill="#8A8F98" stroke="#08090A"/><circle cx="27" cy="319" r="3.5" fill="#8A8F98" stroke="#08090A"/><circle cx="10" cy="265" r="3.5" fill="#8A8F98" stroke="#08090A"/><circle cx="25" cy="221" r="3.5" fill="#8A8F98" stroke="#08090A"/><circle cx="37" cy="269" r="3.5" fill="#8A8F98" stroke="#08090A"/><circle cx="27" cy="223" r="3.5" fill="#8A8F98" stroke="#08090A"/><circle cx="15" cy="213" r="3.5" fill="#8A8F98" stroke="#08090A"/><circle cx="10" cy="54" r="3.5" fill="#8A8F98" stroke="#08090A"/><circle cx="32" cy="24" r="3.5" fill="#8A8F98" stroke="#08090A"/><circle cx="37" cy="4" r="3.5" fill="#8A8F98" stroke="#08090A"/><circle cx="31" cy="62" r="3.5" fill="#8A8F98" stroke="#08090A"/><circle cx="52" cy="43" r="3.5" fill="#8A8F98" stroke="#08090A"/><circle cx="24" cy="55" r="3.5" fill="#8A8F98" stroke="#08090A"/><circle cx="19" cy="57" r="3.5" fill="#8A8F98" stroke="#08090A"/><circle cx="8" cy="67" r="3.5" fill="#8A8F98" stroke="#08090A"/><circle cx="14" cy="82" r="3.5" fill="#8A8F98" stroke="#08090A"/><circle cx="24" cy="126" r="3.5" fill="#8A8F98" stroke="#08090A"/><circle cx="46" cy="131" r="3.5" fill="#8A8F98" stroke="#08090A"/><circle cx="41" cy="136" r="3.5" fill="#8A8F98" stroke="#08090A"/><circle cx="24" cy="105" r="3.5" fill="#8A8F98" stroke="#08090A"/><circle cx="21" cy="89" r="3.5" fill="#8A8F98" stroke="#08090A"/><circle cx="16" cy="31" r="3.5" fill="#8A8F98" stroke="#08090A"/><circle cx="22" cy="22" r="3.5" fill="#8A8F98" stroke="#08090A"/><circle cx="35" cy="22" r="3.5" fill="#8A8F98" stroke="#08090A"/></svg>