<svg width="12" height="12" viewBox="0 0 16 16" role="img" focusable="false" aria-hidden="true" xmlns="http://www.w3.org/2000/svg" class="sx-1fwcy2r sx-13jp3wb sx-13wgh6h sx-31pjnn sx-m5nenu sx-1fwcy2r sx-13jp3wb sx-12exqgt sx-1tad8l3" style="--x---icon-default-color:var(--color-green);margin-left:2px;margin-right:4px" fill="var(--color-green)"><path fill-rule="evenodd" clip-rule="evenodd" d="M12.5 10C13.8807 10 15 11.1193 15 12.5C15 13.8807 13.8807 15 12.5 15C11.1193 15 10 13.8807 10 12.5C10 11.1193 11.1193 10 12.5 10ZM12.5 11.5C11.9477 11.5 11.5 11.9477 11.5 12.5C11.5 13.0523 11.9477 13.5 12.5 13.5C13.0523 13.5 13.5 13.0523 13.5 12.5C13.5 11.9477 13.0523 11.5 12.5 11.5Z"/><path fill-rule="evenodd" clip-rule="evenodd" d="M3.5 4.5C3.91414 4.50009 4.25 4.83584 4.25 5.25V14.249C4.24982 14.663 3.91403 14.9989 3.5 14.999C3.0859 14.999 2.75018 14.6631 2.75 14.249V5.25C2.75 4.83579 3.08579 4.5 3.5 4.5Z"/><path fill-rule="evenodd" clip-rule="evenodd" d="M10 2.75C11.7949 2.75 13.25 4.20507 13.25 6V10.75C13.25 11.1642 12.9142 11.5 12.5 11.5C12.0858 11.5 11.75 11.1642 11.75 10.75V6C11.75 5.0335 10.9665 4.25 10 4.25H8C7.58579 4.25 7.25 3.91421 7.25 3.5C7.25 3.08579 7.58579 2.75 8 2.75H10Z"/><path fill-rule="evenodd" clip-rule="evenodd" d="M3.5 1C4.88071 1 6 2.11929 6 3.5C6 4.88071 4.88071 6 3.5 6C2.11929 6 1 4.88071 1 3.5C1 2.11929 2.11929 1 3.5 1ZM3.5 2.5C2.94772 2.5 2.5 2.94772 2.5 3.5C2.5 4.05228 2.94772 4.5 3.5 4.5C4.05228 4.5 4.5 4.05228 4.5 3.5C4.5 2.94772 4.05228 2.5 3.5 2.5Z"/></svg>